<?xml version="1.0" encoding="utf-8"?>
<!-- Generator: Adobe Illustrator 27.2.0, SVG Export Plug-In . SVG Version: 6.00 Build 0)  -->
<svg version="1.1" id="Layer_1" xmlns="http://www.w3.org/2000/svg" xmlns:xlink="http://www.w3.org/1999/xlink" x="0px" y="0px"
	 viewBox="0 0 20 20" style="enable-background:new 0 0 20 20;" xml:space="preserve">
<style type="text/css">
	.st0{fill:#DDDDDD;}
</style>
<path class="st0" d="M17.2,15.5c0.4,0.4,0.4,0.8,0.1,1.2l-0.5,0.6c-0.3,0.3-0.8,0.3-1.1,0L10,11.7l-5.5,5.5c-0.3,0.3-0.8,0.3-1.1,0
	l-0.6-0.5c-0.3-0.3-0.3-0.8,0-1.1L8.3,10L2.7,4.5c-0.3-0.3-0.3-0.8,0-1.1l0.5-0.6c0.3-0.3,0.8-0.3,1.1,0L10,8.3l5.5-5.5
	c0.3-0.3,0.8-0.3,1.1,0l0.6,0.5c0.3,0.3,0.3,0.8,0,1.1L11.7,10L17.2,15.5z"/>
</svg>
