<?xml version="1.0" encoding="utf-8"?>
<!-- Generator: Adobe Illustrator 27.2.0, SVG Export Plug-In . SVG Version: 6.00 Build 0)  -->
<svg version="1.1" id="Layer_1" xmlns="http://www.w3.org/2000/svg" xmlns:xlink="http://www.w3.org/1999/xlink" x="0px" y="0px"
	 viewBox="0 0 80 45" style="enable-background:new 0 0 80 45;" xml:space="preserve">
<style type="text/css">
	.st0{fill:#818AF9;}
</style>
<path class="st0" d="M2.5,0c0.6,0,1.2,0.2,1.7,0.7L40,34L75.8,0.7c1-0.9,2.6-0.9,3.5,0.1s0.9,2.6-0.1,3.5L41.7,39.2
	c-1,0.9-2.4,0.9-3.4,0L0.8,4.3c-1-0.9-1.1-2.5-0.1-3.5C1.2,0.3,1.8,0,2.5,0z"/>
<path class="st0" d="M2.5,40h75c1.4,0,2.5,1.1,2.5,2.5S78.9,45,77.5,45h-75C1.1,45,0,43.9,0,42.5S1.1,40,2.5,40z"/>
</svg>
