<?xml version="1.0" encoding="utf-8"?>
<!-- Generator: Adobe Illustrator 24.0.1, SVG Export Plug-In . SVG Version: 6.00 Build 0)  -->
<svg version="1.1" id="Layer_1" xmlns="http://www.w3.org/2000/svg" xmlns:xlink="http://www.w3.org/1999/xlink" x="0px" y="0px"
	 viewBox="0 0 80 45" style="enable-background:new 0 0 80 45;" xml:space="preserve">
<style type="text/css">
	.st0{fill:#818AF9;}
</style>
<path class="st0" d="M10.6,8.6C9.9,8,9.8,6.7,10.5,6c0.4-0.4,0.8-0.6,1.4-0.6c0.4,0,0.9,0.2,1.3,0.5L40,31.4L66.9,5.9
	c0.8-0.7,2-0.7,2.6,0.1c0.7,0.8,0.7,2-0.1,2.7L41.3,35.3c-0.3,0.3-0.6,0.4-0.9,0.5h27.8c1.1,0,1.9,0.8,1.9,1.9
	c0,1.1-0.8,1.9-1.9,1.9H11.9c-1.1,0-1.9-0.8-1.9-1.9c0-1.1,0.8-1.9,1.9-1.9h27.8c-0.3-0.1-0.7-0.2-0.9-0.5L10.6,8.6z"/>
</svg>
