<?xml version="1.0" encoding="utf-8"?>
<!-- Generator: Adobe Illustrator 27.2.0, SVG Export Plug-In . SVG Version: 6.00 Build 0)  -->
<svg version="1.1" id="Layer_1" xmlns="http://www.w3.org/2000/svg" xmlns:xlink="http://www.w3.org/1999/xlink" x="0px" y="0px"
	 viewBox="0 0 600 591" style="enable-background:new 0 0 600 591;" xml:space="preserve">
<style type="text/css">
	.st0{fill:#818AF9;}
</style>
<path class="st0" d="M433.3,178.2c-64.6-73.7-177-81.1-250.8-16.3c-73.6,64.7-80.9,176.9-16,250.7c64.7,73.7,177,80.9,250.7,16.2
	C491,364.1,498.2,251.8,433.3,178.2z M388.7,396.3C333,445.2,248.1,440,198.9,384c-48.9-55.9-43.5-140.7,12.4-189.6
	c55.6-49.2,140.6-43.7,189.6,12.1C450.2,262.4,444.5,347.4,388.7,396.3z M433.3,178.2c-64.6-73.7-177-81.1-250.8-16.3
	c-73.6,64.7-80.9,176.9-16,250.7c64.7,73.7,177,80.9,250.7,16.2C491,364.1,498.2,251.8,433.3,178.2z M388.7,396.3
	C333,445.2,248.1,440,198.9,384c-48.9-55.9-43.5-140.7,12.4-189.6c55.6-49.2,140.6-43.7,189.6,12.1
	C450.2,262.4,444.5,347.4,388.7,396.3z M598.9,321c1-11.5,1.3-23.3,0.9-35.1c-0.3-11.5-1.4-22.9-3.1-34.1l-59.4-9.8l-20.1-56.2
	l39.6-45.3c-12-20-26.3-38.3-42.4-54.9l-53.8,27L411.2,79l5.3-60C396,10.4,374.4,3.9,351.9,0l-28,53.4l-59.7,1.4L233.6,2.9
	c-22.9,5.2-44.9,13-65.5,23.1l8.8,59.6l-47.4,36.3L74.2,98c-15.2,17.4-28.4,36.5-39.3,57.1l42.1,43l-17,57.3L1.3,268.6
	c-1.1,11.8-1.5,23.9-1.1,36.2C0.5,316,1.6,327,3.1,337.9l59.4,10l19.9,56.2l-39.8,45.2c12,20,26.3,38.5,42.4,55.1l53.9-26.9
	l49.3,33.7l-5.6,60c21.1,8.9,43.4,15.7,66.6,19.6l27.8-53.5l59.7-1.6l30.8,51.9c22.9-5.3,44.8-13.2,65.4-23.4l-9-59.6l47.3-36.5
	l55.3,23.7c15.2-17.5,28.4-36.7,39.2-57.3l-42.3-42.8l16.7-57.4L598.9,321z M430,443.5c-81.7,71.7-206.2,63.7-278-18
	c-72-81.9-63.9-206.2,17.8-278.1c81.7-71.8,206.3-63.7,278.1,18S511.7,371.6,430,443.5z M182.5,161.9
	c-73.6,64.7-80.9,176.9-16,250.7c64.7,73.7,177,80.9,250.7,16.2c73.8-64.7,81-177,16.1-250.6C368.7,104.5,256.3,97.1,182.5,161.9z
	 M388.7,396.3C333,445.2,248.1,440,198.9,384c-48.9-55.9-43.5-140.7,12.4-189.6c55.6-49.2,140.6-43.7,189.6,12.1
	C450.2,262.4,444.5,347.4,388.7,396.3z"/>
</svg>
