<?xml version="1.0" encoding="utf-8"?>
<!-- Generator: Adobe Illustrator 24.0.1, SVG Export Plug-In . SVG Version: 6.00 Build 0)  -->
<svg version="1.1" id="Layer_1" xmlns="http://www.w3.org/2000/svg" xmlns:xlink="http://www.w3.org/1999/xlink" x="0px" y="0px"
	 viewBox="0 0 80 45" style="enable-background:new 0 0 80 45;" xml:space="preserve">
<style type="text/css">
	.st0{fill:#818AF9;}
</style>
<path class="st0" d="M69.4,36.4c0.7,0.7,0.8,1.9,0.1,2.7c-0.4,0.4-0.8,0.6-1.4,0.6c-0.4,0-0.9-0.2-1.3-0.5L40,13.6L13.1,39.1
	c-0.8,0.7-2,0.7-2.6-0.1c-0.7-0.8-0.7-2,0.1-2.7L38.7,9.7c0.3-0.3,0.6-0.4,0.9-0.5H11.9c-1.1,0-1.9-0.8-1.9-1.9
	c0-1.1,0.8-1.9,1.9-1.9h56.2c1.1,0,1.9,0.8,1.9,1.9c0,1.1-0.8,1.9-1.9,1.9H40.3c0.3,0.1,0.7,0.2,0.9,0.5L69.4,36.4z"/>
</svg>
